<?xml version="1.0" encoding="UTF-8" standalone="no"?>
<!-- Created with Inkscape (http://www.inkscape.org/) -->

<svg
        width="256mm"
        height="256mm"
        viewBox="0 0 256 256"
        version="1.1"
        id="svg1"
        inkscape:version="1.3.2 (091e20ef0f, 2023-11-25)"
        sodipodi:docname="icon.svg"
        xmlns:inkscape="http://www.inkscape.org/namespaces/inkscape"
        xmlns:sodipodi="http://sodipodi.sourceforge.net/DTD/sodipodi-0.dtd"
        xmlns="http://www.w3.org/2000/svg"
>
    <sodipodi:namedview
            id="namedview1"
            pagecolor="#505050"
            bordercolor="#eeeeee"
            borderopacity="1"
            inkscape:showpageshadow="0"
            inkscape:pageopacity="0"
            inkscape:pagecheckerboard="0"
            inkscape:deskcolor="#505050"
            inkscape:document-units="mm"
            inkscape:zoom="0.71713664"
            inkscape:cx="459.46613"
            inkscape:cy="484.56595"
            inkscape:window-width="1920"
            inkscape:window-height="1011"
            inkscape:window-x="0"
            inkscape:window-y="0"
            inkscape:window-maximized="1"
            inkscape:current-layer="layer1"/>
    <defs
            id="defs1"/>
    <g
            inkscape:label="Layer 1"
            inkscape:groupmode="layer"
            id="layer1"
            transform="translate(-53.994102,-40.056377)">
        <path
                d="M 64.485938,244.12193 H 299.50226 c 6.29508,0 10.4918,-4.19672 10.4918,-10.4918 v -131.1475 c 0,-6.29508 -4.19672,-10.4918 -10.4918,-10.4918 H 64.485938 c -6.29508,0 -10.4918,4.19672 -10.4918,10.4918 v 131.1475 c 0,6.29508 4.19672,10.4918 10.4918,10.4918 z m 7.34426,-140.59012 h 15.527864 c 2.308196,0 4.19672,1.88852 4.19672,4.19672 v 15.52786 c 0,2.3082 -1.888524,4.19672 -4.19672,4.19672 H 71.830198 c -2.308196,0 -4.19672,-1.88852 -4.19672,-4.19672 v -15.52786 c 0,-2.3082 1.888524,-4.19672 4.19672,-4.19672 z m 37.770482,0 h 15.52786 c 2.3082,0 4.19672,1.88852 4.19672,4.19672 v 15.52786 c 0,2.3082 -1.88852,4.19672 -4.19672,4.19672 h -15.52786 c -2.3082,0 -4.19672,-1.88852 -4.19672,-4.19672 v -15.52786 c 0,-2.3082 1.88852,-4.19672 4.19672,-4.19672 z m 37.77048,0 h 15.52786 c 2.3082,0 4.19672,1.88852 4.19672,4.19672 v 15.52786 c 0,2.3082 -1.88852,4.19672 -4.19672,4.19672 h -15.52786 c -2.3082,0 -4.19672,-1.88852 -4.19672,-4.19672 v -15.52786 c 0,-2.3082 1.88852,-4.19672 4.19672,-4.19672 z m 37.77048,0 h 15.52786 c 2.3082,0 4.19672,1.88852 4.19672,4.19672 v 15.52786 c 0,2.3082 -1.88852,4.19672 -4.19672,4.19672 h -15.52786 c -2.3082,0 -4.19672,-1.88852 -4.19672,-4.19672 v -15.52786 c 0,-2.3082 1.88852,-4.19672 4.19672,-4.19672 z m 37.77048,0 h 15.52786 c 2.3082,0 4.19672,1.88852 4.19672,4.19672 v 15.52786 c 0,2.3082 -1.88852,4.19672 -4.19672,4.19672 h -15.52786 c -2.3082,0 -4.19672,-1.88852 -4.19672,-4.19672 v -15.52786 c 0,-2.3082 1.88852,-4.19672 4.19672,-4.19672 z m 37.77048,0 h 28.11802 c 2.3082,0 4.19672,1.88852 4.19672,4.19672 v 15.52786 c 0,2.3082 -1.88852,4.19672 -4.19672,4.19672 H 260.6826 c -2.3082,0 -4.19672,-1.88852 -4.19672,-4.19672 v -15.52786 c 0,-2.3082 1.88852,-4.19672 4.19672,-4.19672 z M 80.223638,138.15475 h 15.527864 c 2.308196,0 4.19672,1.88852 4.19672,4.19672 v 15.52786 c 0,2.3082 -1.888524,4.19672 -4.19672,4.19672 H 80.223638 c -2.308196,0 -4.19672,-1.88852 -4.19672,-4.19672 v -15.52786 c 0,-2.3082 1.888524,-4.19672 4.19672,-4.19672 z m 37.770482,0 h 15.52786 c 2.3082,0 4.19672,1.88852 4.19672,4.19672 v 15.52786 c 0,2.3082 -1.88852,4.19672 -4.19672,4.19672 h -15.52786 c -2.3082,0 -4.19672,-1.88852 -4.19672,-4.19672 v -15.52786 c 0,-2.3082 1.88852,-4.19672 4.19672,-4.19672 z m 37.77048,0 h 15.52786 c 2.3082,0 4.19672,1.88852 4.19672,4.19672 v 15.52786 c 0,2.3082 -1.88852,4.19672 -4.19672,4.19672 H 155.7646 c -2.3082,0 -4.19672,-1.88852 -4.19672,-4.19672 v -15.52786 c 0,-2.3082 1.88852,-4.19672 4.19672,-4.19672 z m 37.77048,0 h 15.52786 c 2.3082,0 4.19672,1.88852 4.19672,4.19672 v 15.52786 c 0,2.3082 -1.88852,4.19672 -4.19672,4.19672 h -15.52786 c -2.3082,0 -4.19672,-1.88852 -4.19672,-4.19672 v -15.52786 c 0,-2.3082 1.88852,-4.19672 4.19672,-4.19672 z m 37.77048,0 h 15.52786 c 2.3082,0 4.19672,1.88852 4.19672,4.19672 v 15.52786 c 0,2.3082 -1.88852,4.19672 -4.19672,4.19672 h -15.52786 c -2.3082,0 -4.19672,-1.88852 -4.19672,-4.19672 v -15.52786 c 0,-2.3082 1.88852,-4.19672 4.19672,-4.19672 z m 41.9672,55.3967 v -27.27868 c 0,-2.30819 -1.88853,-4.19672 -4.19672,-4.19672 -2.3082,0 -4.19672,-1.88852 -4.19672,-4.19672 v -15.52786 c 0,-2.3082 1.88852,-4.19672 4.19672,-4.19672 h 19.72458 c 2.3082,0 4.19672,1.88852 4.19672,4.19672 v 51.19998 c 0,2.3082 -1.88852,4.19672 -4.19672,4.19672 h -11.33114 c -2.3082,0 -4.19672,-1.88852 -4.19672,-4.19672 z M 88.617078,173.82687 h 15.527862 c 2.3082,0 4.19672,1.88852 4.19672,4.19672 v 15.52786 c 0,2.3082 -1.88852,4.19672 -4.19672,4.19672 H 88.617078 c -2.308196,0 -4.19672,-1.88852 -4.19672,-4.19672 v -15.52786 c 0,-2.3082 1.888524,-4.19672 4.19672,-4.19672 z m 37.770482,0 h 15.52786 c 2.3082,0 4.19672,1.88852 4.19672,4.19672 v 15.52786 c 0,2.3082 -1.88852,4.19672 -4.19672,4.19672 h -15.52786 c -2.3082,0 -4.19672,-1.88852 -4.19672,-4.19672 v -15.52786 c 0,-2.3082 1.88852,-4.19672 4.19672,-4.19672 z m 37.77048,0 h 15.52786 c 2.3082,0 4.19672,1.88852 4.19672,4.19672 v 15.52786 c 0,2.3082 -1.88852,4.19672 -4.19672,4.19672 h -15.52786 c -2.3082,0 -4.19672,-1.88852 -4.19672,-4.19672 v -15.52786 c 0,-2.3082 1.88852,-4.19672 4.19672,-4.19672 z m 37.77048,0 h 15.52786 c 2.3082,0 4.19672,1.88852 4.19672,4.19672 v 15.52786 c 0,2.3082 -1.88852,4.19672 -4.19672,4.19672 h -15.52786 c -2.3082,0 -4.19672,-1.88852 -4.19672,-4.19672 v -15.52786 c 0,-2.3082 1.88852,-4.19672 4.19672,-4.19672 z m 37.77048,0 h 15.52786 c 2.3082,0 4.19672,1.88852 4.19672,4.19672 v 15.52786 c 0,2.3082 -1.88852,4.19672 -4.19672,4.19672 H 239.699 c -2.3082,0 -4.19672,-1.88852 -4.19672,-4.19672 v -15.52786 c 0,-2.3082 1.88852,-4.19672 4.19672,-4.19672 z m -121.70488,34.62294 h 128.8393 c 2.3082,0 4.19672,1.88852 4.19672,4.19672 v 15.52786 c 0,2.3082 -1.88852,4.19672 -4.19672,4.19672 h -128.8393 c -2.3082,0 -4.19672,-1.88852 -4.19672,-4.19672 v -15.52786 c 0,-2.3082 1.88852,-4.19672 4.19672,-4.19672 z"
                id="text1"
                style="-inkscape-font-specification:'Libre Franklin';fill:#237759;stroke-width:5.24592;stroke-linecap:round;stroke-linejoin:round;stroke-miterlimit:0"
                aria-label="⌨"/>
    </g>
</svg>
